<svg xmlns="http://www.w3.org/2000/svg" version="1.1" xmlns:xlink="http://www.w3.org/1999/xlink" xmlns:svgjs="http://svgjs.dev/svgjs" width="1280" height="720" preserveAspectRatio="none" viewBox="0 0 1280 720"><g mask="url(&quot;#SvgjsMask1029&quot;)" fill="none"><rect width="1280" height="720" x="0" y="0" fill="rgba(228, 228, 231, 1)"></rect><path d="M437.44 180.73L467.13 180.73L467.13 210.42L437.44 210.42z" fill="rgba(227, 227, 227, 1)"></path><path d="M1119.97 126.32 a44.79 44.79 0 1 0 89.58 0 a44.79 44.79 0 1 0 -89.58 0z" stroke="rgba(2, 132, 199, 1)"></path><path d="M-23.9 657.05 a62.37 62.37 0 1 0 124.74 0 a62.37 62.37 0 1 0 -124.74 0z" fill="rgba(2, 132, 199, 1)"></path><path d="M611.94 383.64a42.64 42.64 0 1 0-44.78-72.58z" stroke="rgba(227, 227, 227, 1)"></path><path d="M251.3 7.67L286.34 7.67L286.34 35.22L251.3 35.22z" stroke="rgba(14, 165, 233, 1)"></path><path d="M668.24 11.34 a28.96 28.96 0 1 0 57.92 0 a28.96 28.96 0 1 0 -57.92 0z" fill="rgba(14, 165, 233, 1)"></path><path d="M808.42 87.71 a10.02 10.02 0 1 0 20.04 0 a10.02 10.02 0 1 0 -20.04 0z" fill="rgba(227, 227, 227, 1)"></path><path d="M-4.84 179.47 a41.35 41.35 0 1 0 82.7 0 a41.35 41.35 0 1 0 -82.7 0z" stroke="rgba(227, 227, 227, 1)"></path><path d="M550.7 100.96 a30.27 30.27 0 1 0 60.54 0 a30.27 30.27 0 1 0 -60.54 0z" stroke="rgba(227, 227, 227, 1)"></path><path d="M890.47 452.03 a13.67 13.67 0 1 0 27.34 0 a13.67 13.67 0 1 0 -27.34 0z" fill="rgba(14, 165, 233, 1)"></path><path d="M469.25 516.79L491.25 516.79L491.25 538.79L469.25 538.79z" fill="rgba(227, 227, 227, 1)"></path><path d="M990.23 668.49L1019.87 668.49L1019.87 698.13L990.23 698.13z" fill="rgba(2, 132, 199, 1)"></path><path d="M512.73 15.85L525.27 15.85L525.27 68.28L512.73 68.28z" stroke="rgba(2, 132, 199, 1)"></path><path d="M190.34 391.53L234.24 391.53L234.24 435.43L190.34 435.43z" fill="rgba(14, 165, 233, 1)"></path><path d="M547.47 9.25L609.17 9.25L609.17 70.95L547.47 70.95z" fill="rgba(2, 132, 199, 1)"></path><path d="M611.94 407.63 a17.52 17.52 0 1 0 35.04 0 a17.52 17.52 0 1 0 -35.04 0z" stroke="rgba(227, 227, 227, 1)"></path><path d="M224.65 207.11a52.4 52.4 0 1 0 14.5 103.8z" fill="rgba(2, 132, 199, 1)"></path><path d="M1046.34 455.21a49.81 49.81 0 1 0-54.93-83.11z" fill="rgba(2, 132, 199, 1)"></path><path d="M380.11 448.36a21.06 21.06 0 1 0 41.36 7.94z" stroke="rgba(227, 227, 227, 1)"></path><path d="M1031.96 391.04 a25.13 25.13 0 1 0 50.26 0 a25.13 25.13 0 1 0 -50.26 0z" stroke="rgba(227, 227, 227, 1)"></path><path d="M817.26 62.91a45.95 45.95 0 1 0-5.54 91.73z" fill="rgba(227, 227, 227, 1)"></path><path d="M634.78 25.49L693.7 25.49L693.7 53.45L634.78 53.45z" stroke="rgba(2, 132, 199, 1)"></path><path d="M108.7 477.15L140.4 477.15L140.4 508.85L108.7 508.85z" stroke="rgba(227, 227, 227, 1)"></path></g><defs><mask id="SvgjsMask1029"><rect width="1280" height="720" fill="#ffffff"></rect></mask></defs></svg>